<?xml version="1.0" encoding="UTF-8" standalone="no"?>
<!-- Created with Inkscape (http://www.inkscape.org/) -->

<svg
   xmlns:dc="http://purl.org/dc/elements/1.1/"
   xmlns:cc="http://creativecommons.org/ns#"
   xmlns:rdf="http://www.w3.org/1999/02/22-rdf-syntax-ns#"
   xmlns:svg="http://www.w3.org/2000/svg"
   xmlns="http://www.w3.org/2000/svg"
   xmlns:sodipodi="http://sodipodi.sourceforge.net/DTD/sodipodi-0.dtd"
   xmlns:inkscape="http://www.inkscape.org/namespaces/inkscape"
   width="210mm"
   height="297mm"
   viewBox="0 0 210 297"
   version="1.1"
   id="svg4637"
   inkscape:version="0.92.4 (5da689c313, 2019-01-14)"
   sodipodi:docname="shifty.svg">
  <defs
     id="defs4631" />
  <sodipodi:namedview
     id="base"
     pagecolor="#ffffff"
     bordercolor="#666666"
     borderopacity="1.0"
     inkscape:pageopacity="0.0"
     inkscape:pageshadow="2"
     inkscape:zoom="0.98994949"
     inkscape:cx="198.36803"
     inkscape:cy="481.01068"
     inkscape:document-units="mm"
     inkscape:current-layer="layer1"
     showgrid="false"
     inkscape:window-width="1920"
     inkscape:window-height="958"
     inkscape:window-x="0"
     inkscape:window-y="27"
     inkscape:window-maximized="1" />
  <metadata
     id="metadata4634">
    <rdf:RDF>
      <cc:Work
         rdf:about="">
        <dc:format>image/svg+xml</dc:format>
        <dc:type
           rdf:resource="http://purl.org/dc/dcmitype/StillImage" />
        <dc:title></dc:title>
      </cc:Work>
    </rdf:RDF>
  </metadata>
  <g
     inkscape:label="Layer 1"
     inkscape:groupmode="layer"
     id="layer1">
    <path
       style="fill:#b7d0fe;stroke-width:0.44426456;fill-opacity:1"
       d="m 98.867513,240.35758 c -3.856456,-1.40025 -22.307708,-14.52177 -33.703036,-23.96777 -10.558973,-8.7527 -27.294481,-25.65313 -26.562926,-26.82467 0.151527,-0.24266 8.002658,-0.41082 19.179852,-0.41082 10.462637,0 19.407324,-0.18214 20.005849,-0.40737 0.595397,-0.22404 1.621706,-1.31796 2.280692,-2.4309 0.658982,-1.11295 1.303139,-2.02354 1.431457,-2.02354 0.128322,0 1.028836,1.70427 2.001146,3.78727 2.638282,5.65201 3.396551,5.02585 4.853918,-4.00826 0.2745,-1.70164 0.691259,-4.18779 0.926132,-5.52478 0.48319,-2.75057 4.257739,-25.77926 4.889947,-29.83381 0.868636,-5.5708 0.964597,-6.05137 1.16817,-5.84987 0.231881,0.22951 0.566715,2.45332 3.509439,23.30817 1.11479,7.90043 2.242287,15.75667 2.505537,17.45831 0.57219,3.69855 1.08136,7.15853 1.75613,11.93352 0.27482,1.94471 0.683,4.72921 0.90706,6.18774 0.22407,1.45855 0.9363,6.43085 1.58274,11.04957 1.15965,8.28545 1.57021,9.9446 2.46084,9.9446 0.70979,0 1.50115,-2.27218 3.69444,-10.60758 1.11938,-4.25407 2.41804,-9.12692 2.88592,-10.82856 0.46789,-1.70164 1.38648,-5.0828 2.04132,-7.51371 0.65485,-2.4309 1.29222,-4.70296 1.41639,-5.04904 0.16245,-0.45276 0.76286,-0.10758 2.14116,1.23135 2.03908,1.98069 3.10763,2.08816 3.59709,0.36176 0.1503,-0.53014 1.08429,-4.53717 2.07552,-8.90452 0.99124,-4.36734 1.86577,-8.00349 1.94342,-8.08035 0.21346,-0.21126 0.96592,1.84215 2.4959,6.81112 0.76064,2.47036 1.6554,4.59505 1.98835,4.72149 0.33295,0.12646 0.96391,-0.1622 1.40213,-0.64147 0.78295,-0.85629 0.81272,-0.83853 1.71656,1.02428 l 0.91978,1.89565 16.85759,0.11576 c 9.27167,0.0636 16.85759,0.22348 16.85759,0.35508 0,0.13163 -1.15333,1.67062 -2.56293,3.42005 -3.7407,4.64246 -15.55707,16.24135 -21.9978,21.59295 -10.25329,8.51943 -25.89882,19.45818 -35.94797,25.13342 -5.24954,2.96466 -7.89407,3.60003 -10.717407,2.57488 z"
       id="path4647"
       inkscape:connector-curvature="0" />
    <path
       style="fill:#decd87;stroke-width:0.44426456"
       d="m 108.96565,197.77296 c -0.27342,-1.58007 -0.70591,-4.2154 -0.96108,-5.85626 -0.25518,-1.64085 -0.64926,-4.07729 -0.87572,-5.41428 -0.22647,-1.337 -0.62837,-3.82315 -0.89312,-5.52477 -0.26475,-1.70164 -0.67448,-4.23752 -0.91052,-5.63528 -0.23603,-1.39778 -0.62228,-3.68502 -0.85832,-5.0828 -0.23604,-1.39776 -0.63794,-3.88393 -0.89312,-5.52478 -0.25517,-1.64086 -0.6649,-4.27617 -0.91051,-5.85626 -0.24561,-1.5801 -0.64705,-4.11596 -0.8921,-5.63528 -0.52094,-3.22978 -1.981607,-12.45585 -2.921447,-18.45276 -0.36193,-2.30936 -0.843,-5.19328 -1.06904,-6.40874 -0.226045,-1.21545 -0.663825,-3.857 -0.972844,-5.8701 -0.802131,-5.22554 -1.997362,-5.77385 -3.063339,-1.40531 -0.450568,1.84648 -2.62529,14.93236 -5.799868,34.8993 -0.753661,4.74025 -1.568358,9.76228 -1.810441,11.16006 -0.675113,3.89807 -1.27239,7.45205 -1.559866,9.28163 -0.143242,0.91158 -0.432425,1.65742 -0.642643,1.65742 -0.210216,0 -0.805686,-0.71038 -1.323264,-1.57861 -1.443984,-2.42229 -2.187772,-1.90285 -4.881106,3.40886 l -2.384743,4.70311 -3.19724,0.25655 c -1.758475,0.14116 -10.863681,0.38645 -20.233784,0.54522 l -17.03655,0.28866 -2.443917,-3.27081 c -7.132357,-9.54555 -10.847843,-17.65091 -12.215609,-26.64847 -0.37159,-2.44443 -0.881202,-5.15057 -1.13247,-6.01363 -1.293257,-4.44205 1.772077,-19.30095 5.492908,-26.62633 7.226135,-14.22641 18.959708,-22.49999 34.669561,-24.446177 1.294952,-0.16037 2.462282,-0.46436 2.594067,-0.67541 0.318025,-0.5093 5.346184,-0.49375 6.333141,0.0195 0.426482,0.22183 2.625145,0.62204 4.885919,0.88935 9.409523,1.112607 18.388446,5.735677 25.745818,13.255997 1.684547,1.72185 3.369577,3.13063 3.744527,3.13063 0.37495,0 2.82253,-2.03864 5.43908,-4.53032 7.26718,-6.92036 13.91121,-10.17276 23.75709,-11.629617 2.54833,-0.37707 5.66431,-0.89924 6.9244,-1.16037 1.26008,-0.26115 2.96817,-0.35219 3.79575,-0.20233 0.82757,0.14984 3.5142,0.57555 5.97027,0.94598 8.83778,1.332887 14.82309,3.547467 20.98791,7.765537 9.13596,6.25096 15.46367,16.83885 17.15236,28.70033 0.91935,6.45755 1.00939,7.31825 1.01729,9.7236 0.0152,4.5362 -1.29962,11.91999 -3.0687,17.23731 -2.44177,7.33919 -9.1913,19.68659 -10.9992,20.12167 -0.53651,0.12913 -8.51116,0.17936 -17.72145,0.11159 l -16.74594,-0.12312 -1.58915,-4.57592 c -1.74817,-5.03382 -2.53808,-5.92838 -3.92953,-4.45014 l -0.87987,0.93474 -1.62649,-5.23597 c -2.88791,-9.29668 -2.65842,-8.77183 -3.83553,-8.77183 -0.93072,0 -1.14014,0.31394 -1.62164,2.43091 -1.11157,4.88722 -3.84244,17.93986 -4.04563,19.33672 -0.11492,0.79004 -0.33767,1.42868 -0.495,1.41921 -0.15734,-0.01 -0.94553,-0.9045 -1.75153,-1.98893 -1.50193,-2.02073 -2.31792,-2.39094 -3.12811,-1.41919 -0.25335,0.30386 -1.29088,3.4364 -2.30564,6.96121 -1.01476,3.5248 -2.01717,6.90598 -2.22758,7.5137 -0.21042,0.60773 -0.72332,2.24859 -1.13979,3.64635 -0.41648,1.39778 -0.81625,2.54141 -0.88838,2.54141 -0.0721,0 -0.35486,-1.2928 -0.62827,-2.8729 z"
       id="path4606"
       inkscape:connector-curvature="0" />
  </g>
</svg>
